<?xml version="1.0" encoding="UTF-8"?>
<svg width="416px" height="176px" viewBox="0 0 416 176" version="1.1" xmlns="http://www.w3.org/2000/svg" xmlns:xlink="http://www.w3.org/1999/xlink">
    <title>Logo</title>
    <defs>
        <polygon id="path-1" points="0 0 151.379843 0 151.379843 176 0 176"></polygon>
    </defs>
    <g id="FINAL-DESIGN---RD-5" stroke="none" stroke-width="1" fill="none" fill-rule="evenodd">
        <g id="Desktop-RD-2-Copy-4" transform="translate(-56.000000, -18.000000)">
            <g id="Logo" transform="translate(56.000000, 18.000000)">
                <text id="EVIL-GENIUS" font-family="Intensa-BoldCondensed, Intensa" font-size="61.4594812" font-style="condensed" font-weight="bold" letter-spacing="1.01270586" fill="#000000">
                    <tspan x="178.840843" y="106.048234">EV</tspan>
                    <tspan x="227.759839" y="106.048234" letter-spacing="-0.00137561264">I</tspan>
                    <tspan x="240.603495" y="106.048234" letter-spacing="0.674678693">L</tspan>
                    <tspan x="264.448398" y="106.048234" letter-spacing="-0.00137561264"> </tspan>
                    <tspan x="272.252377" y="106.048234" letter-spacing="0.127689294">G</tspan>
                    <tspan x="299.1764" y="106.048234" letter-spacing="0.361235336">E</tspan>
                    <tspan x="321.47867" y="106.048234" letter-spacing="-0.00137561264">N</tspan>
                    <tspan x="348.273628" y="106.048234" letter-spacing="0.133835246">I</tspan>
                    <tspan x="361.252495" y="106.048234" letter-spacing="0.330505587">U</tspan>
                    <tspan x="388.072037" y="106.048234" letter-spacing="-0.00137561264">S</tspan>
                </text>
                <polyline id="Fill-1" fill="#FFFFFF" points="106.71667 144.939081 44.7078363 144.939081 44.7078363 32.4125962 106.71667 32.4125962"></polyline>
                <g id="Group-7" transform="translate(0.000000, 0.000000)">
                    <path d="M55.3103324,42.5554005 C56.3289693,43.3903973 57.2939213,45.0727715 57.7454252,50.2849675 C58.1418677,54.9042746 60.2397091,66.2021807 61.6024801,72.7500965 C61.9686388,74.7543641 61.9658857,77.2455984 61.6134924,78.8949579 C61.5694432,79.0957973 61.4703326,79.469964 61.332679,79.9734382 C61.1317047,80.7011372 60.8123482,81.8690323 60.5232756,83.173113 C66.8388244,81.2431286 73.2094347,79.2058464 79.5249836,77.0970323 C81.3915669,76.4738798 83.2526441,75.8424736 85.1082151,75.205565 C84.024881,74.2687728 82.9800899,73.4612882 82.3372474,72.9646921 C81.9201569,72.6427987 81.6131893,72.4020665 81.4576406,72.2658809 C80.1815914,71.1585128 78.6811668,69.169377 77.8070662,67.4264759 C74.9287287,61.3173804 69.8162726,51.0401788 67.3371306,47.0811658 C64.5606568,42.6475665 64.3183864,40.7217089 64.6308601,39.4410136 C63.6383774,38.0764059 63.4993472,37.8315469 63.4236377,37.6994881 C63.2047684,37.3184434 63.0492198,36.9153889 62.9569919,36.5054563 C61.4166477,36.9731646 59.5252867,37.5701805 58.9113515,37.7682687 C58.8631727,37.784776 58.8136174,37.7999078 58.7709448,37.8136639 C58.2396018,37.997996 56.3909134,38.651412 54.8794765,39.2030326 C55.0529201,39.5840773 55.1713022,40.0008879 55.2263637,40.4438351 C55.2456352,40.5896501 55.2814251,40.8661482 55.3103324,42.5554005 M53.3294966,172.546662 C50.2419255,172.546662 47.2011567,170.792756 45.7612996,168.183219 C45.718627,168.10756 41.8822201,161.127702 36.9280658,151.176521 C34.2975048,151.089857 31.9931829,149.381346 31.1521192,146.869478 C30.4776164,144.85283 30.8836946,142.731635 32.0537505,141.135925 C25.9240341,128.168025 21.2080205,116.780704 18.0227153,107.258714 C14.8401632,97.7408502 11.7580983,85.8101623 8.85360659,71.7651579 C6.92370261,71.1874006 5.34619194,69.7031147 4.68132487,67.7181057 C3.82374272,65.1525883 4.71573828,62.4164948 6.70620986,60.8097794 C4.67581873,49.8777862 3.54430583,41.9941505 3.53191701,41.9102382 C3.04737621,38.5042214 4.98966902,34.7570528 8.05108589,33.1916056 C8.11991271,33.1558397 8.19011607,33.1242006 8.26031942,33.0925615 L38.8455809,19.9609639 C38.8455809,19.9609639 41.8051341,18.643127 41.971695,18.5688439 C42.0969598,18.508317 42.2277308,18.4546681 42.3640079,18.4092729 L60.4461896,12.3689581 C60.5783371,12.3263141 60.7118611,12.2905481 60.8467617,12.2630359 C61.0202052,12.2245187 64.2399238,11.4844392 64.2399238,11.4844392 L96.5320904,3.61180838 C96.6077999,3.59392542 96.6835094,3.57879368 96.7592189,3.56503756 C97.180439,3.49213009 97.6154245,3.45498855 98.0559161,3.45498855 C101.135228,3.45498855 104.173244,5.20339214 105.615854,7.80742674 C105.66128,7.8899635 109.49631,14.8711973 114.453217,24.8251299 C117.082402,24.9131691 119.385347,26.62168 120.223658,29.1307973 C120.757754,30.7278835 120.639372,32.4391456 119.889159,33.9454413 C119.725352,34.2714615 119.538143,34.5795987 119.326156,34.8684774 C125.471014,47.8762699 130.187028,59.2622152 133.355815,68.7388103 C133.972503,70.5835067 134.574049,72.4846033 135.156324,74.4228414 C135.669772,76.1272254 134.803931,77.9416584 133.15484,78.6157086 C121.458411,83.393211 109.260922,88.0125181 96.8982491,92.3443221 C96.8514468,92.362205 96.8046446,92.3773368 96.7550893,92.3924685 C93.1595763,93.6539053 89.5406622,94.897459 85.8845816,96.1176274 C78.9385791,98.4382858 71.798485,100.709422 64.6129651,102.887017 L76.1593522,137.410766 C76.1923891,137.511185 76.2212963,137.614356 76.246074,137.717527 C76.4759555,138.600671 77.6005858,140.646207 78.2792182,141.142803 C78.386588,141.155183 78.5682908,141.167564 78.8435981,141.167564 C81.2442775,141.167564 86.3883939,140.259659 92.4713081,138.232006 C99.84679,135.764157 104.583452,133.015684 105.591076,132.027994 C105.838853,131.231514 105.505731,128.903978 105.153338,128.045595 C105.12443,127.975439 105.069369,127.835127 105.044591,127.762219 L96.6449664,102.643533 C96.046173,100.852486 96.9973597,98.9128721 98.7813508,98.288344 C110.813655,94.0775939 122.675269,89.6041018 134.038577,84.9889216 C134.457044,84.8197213 134.898912,84.7358089 135.34078,84.7358089 C135.879006,84.7358089 136.415855,84.8609897 136.905902,85.1099755 C137.799274,85.5639277 138.451752,86.3824172 138.694023,87.3535996 C139.996226,92.5671713 141.281911,98.2360708 142.524923,104.236493 C144.454827,104.81425 146.030962,106.29716 146.693076,108.279418 C147.227172,109.876504 147.10879,111.587766 146.358577,113.094062 C145.946993,113.91943 145.372977,114.630621 144.675073,115.193247 C146.701335,126.119738 147.835601,134.000622 147.84799,134.084535 C148.328401,137.491927 146.387484,141.23772 143.334327,142.805918 C143.262747,142.84306 143.191167,142.87745 143.118211,142.909089 L112.532949,156.03656 C111.065561,156.689976 109.797771,157.255353 109.471532,157.40667 C109.322866,157.480953 109.168694,157.545607 109.007639,157.599256 L90.9309639,163.632693 C90.7974399,163.676712 90.6597863,163.712478 90.5221326,163.73999 C90.253708,163.799142 88.8358756,164.123786 87.1399828,164.513085 L54.8464396,172.389842 C54.7679771,172.409101 54.6895145,172.425608 54.6110519,172.437989 C54.1939614,172.509521 53.7631055,172.546662 53.3294966,172.546662" id="Fill-2" fill="#000000"></path>
                    <g id="Group-6">
                        <mask id="mask-2" fill="white">
                            <use xlink:href="#path-1"></use>
                        </mask>
                        <g id="Clip-5"></g>
                        <path d="M69.0158167,105.154577 C75.0849655,103.28787 81.1031825,101.357886 86.9809928,99.3948868 C89.6349549,98.5076167 92.2971763,97.601088 95.050249,96.6464129 C93.2442333,98.4415873 92.5050332,101.166676 93.3653685,103.739071 L101.76637,128.857757 C101.815925,129.003572 101.86961,129.148011 101.927425,129.291075 C102.003134,129.530432 102.081597,129.890842 102.136658,130.254004 C100.268698,131.387508 96.4639518,133.252839 91.4065572,134.944843 C86.3464096,136.631344 82.2140474,137.425072 79.9744227,137.646546 C79.8051087,137.328779 79.6523132,136.998632 79.5710976,136.764778 C79.531178,136.614836 79.4871288,136.463519 79.4375735,136.314953 L69.0158167,105.154577 Z M59.9788555,41.0551574 C60.2046074,40.9808743 60.5996734,40.8556936 61.0800846,40.7030006 C61.1970902,43.2244984 62.5075528,45.8821819 64.407173,48.9154076 C66.5573228,52.3503122 71.3944715,61.9232002 74.6403443,68.8205216 C74.665122,68.8727949 74.6912761,68.9250682 74.7174303,68.9773415 C75.5681298,70.6748474 76.8785924,72.5181682 78.1849254,73.9020345 C73.8777432,75.3395496 69.5471597,76.7412989 65.2275886,78.0990285 C65.4203037,76.2378247 65.3528534,74.0395958 65.0211082,72.2169091 C65.0100959,72.1591334 64.9990836,72.1027332 64.9866948,72.0463331 C63.3954187,64.395176 61.5384712,54.0533206 61.1888309,49.9897611 C60.8818633,46.4241733 60.3284957,43.5147527 58.9051571,41.4306996 C59.3676733,41.2670017 59.7503504,41.1335673 59.9788555,41.0551574 L59.9788555,41.0551574 Z M98.0552279,0 L98.0552279,0 C97.4178915,0 96.7833083,0.0536488905 96.1679965,0.160946672 C96.015201,0.187083311 95.863782,0.2187224 95.7137395,0.255863939 L63.4188198,8.12849472 L61.7435751,8.51366624 C60.8736041,8.71313007 60.2459035,8.85756939 60.0876018,8.8919597 L60.0958611,8.9249744 C59.1336621,9.16157977 57.8672487,9.58389283 55.9566162,10.2235527 L50.3059344,12.1136444 L44.6621353,13.9941068 C42.7914224,14.6200105 41.260714,15.1344896 41.260714,15.1344896 C41.0088078,15.2197776 40.7637843,15.3174461 40.5256436,15.4302463 C40.3398111,15.5141586 39.7919497,15.7576421 39.04862,16.0891647 L37.4408256,16.8044832 L6.89686015,29.9195736 C6.75370037,29.9801005 6.61329366,30.0461299 6.47564002,30.1162862 C2.09412477,32.357159 -0.584614994,37.5198331 0.107782797,42.3936284 C0.15596157,42.7279023 1.1525739,49.659614 2.98612034,59.6947078 C1.0314387,62.1914446 0.325275543,65.5892077 1.40310352,68.8136436 C2.18635271,71.1549362 3.79001757,73.0450279 5.83279754,74.2074205 C8.6588267,87.6375261 11.6514168,99.1073838 14.744494,108.352876 C17.8375712,117.60387 22.3484809,128.570254 28.1726062,141.004416 C27.2517034,143.133864 27.0810129,145.594835 27.8725213,147.96364 C28.9338308,151.135803 31.5052008,153.481222 34.6299383,154.309341 C39.1986625,163.421399 42.5725531,169.556631 42.7322314,169.846885 C44.761246,173.5294 49.0202495,176 53.3288083,176 C53.9592619,176 54.5869625,175.947727 55.1953916,175.84318 C55.3536933,175.815668 55.5092419,175.784029 55.666167,175.745512 L87.9583336,167.868754 C89.6349549,167.484958 91.0266332,167.165816 91.2757863,167.112167 L91.2689036,167.079152 C92.232479,166.843923 93.5016456,166.420234 95.4219138,165.779199 L101.075349,163.886356 L106.716395,162.007269 L110.104051,160.87514 C110.405512,160.77472 110.695961,160.655042 110.974022,160.518856 C111.367711,160.338651 112.548779,159.811791 113.941834,159.19139 L144.48167,146.083178 C144.628959,146.019899 144.773496,145.952494 144.915279,145.878211 C149.283029,143.633212 151.957639,138.474664 151.2735,133.611874 C151.223945,133.267971 150.225956,126.340386 148.396539,116.310795 C148.799864,115.79494 149.153634,115.23369 149.453719,114.633923 C150.614139,112.30226 150.798595,109.656957 149.972673,107.184981 C149.190801,104.845064 147.587136,102.956348 145.547109,101.795331 C144.407337,96.3877977 143.234528,91.2663921 142.047954,86.5177774 C141.563413,84.5740369 140.258456,82.9370579 138.473089,82.0291536 C137.541174,81.5573185 136.52529,81.306957 135.5039,81.282196 C138.112436,79.6603487 139.380226,76.4565471 138.467582,73.4260725 C137.855024,71.3942928 137.238336,69.447801 136.635413,67.6443729 C133.553348,58.4291442 129.041061,47.4627608 123.204547,34.9942084 C124.124074,32.8647601 124.294764,30.4024136 123.503256,28.0349843 C122.443323,24.865573 119.873329,22.5229047 116.752721,21.6934103 C112.179868,12.5772258 108.810106,6.4419937 108.649052,6.15173945 C106.607648,2.46509774 102.354151,0 98.0552279,0 L98.0552279,0 Z M50.3775143,40.5874491 C50.3775143,40.5874491 51.0010853,40.4732733 51.2612507,40.3866097 C51.3039233,40.3728535 51.3465959,40.3645999 51.3865155,40.3645999 C51.5916194,40.3645999 51.7554272,40.5448051 51.7967233,40.8749521 C51.8476552,41.2738798 51.8765624,44.447418 51.8765624,44.447418 C51.8765624,44.447418 51.8146183,45.2686587 52.6143859,45.2686587 C52.7451569,45.2686587 52.8979524,45.2480245 53.0769021,45.1971268 C53.0769021,45.1971268 53.8835524,45.7514987 54.300643,50.5826501 C54.7163569,55.4124258 56.8293403,66.7804882 58.2182655,73.4535848 C58.504585,75.02591 58.4674185,77.0755727 58.2334074,78.1705603 C58.0379392,79.0798402 56.3819659,84.2177532 56.4328978,88.0158195 C64.4677406,85.6222537 72.5356202,83.0732436 80.6200183,80.3729161 C84.1976363,79.1788843 87.7518532,77.9573404 91.2867986,76.7206647 C89.1132476,73.5691363 84.4481659,70.2869246 83.7241078,69.6568941 C82.8775379,68.9236926 81.6138775,67.3073478 80.8967021,65.8794619 C77.9935869,59.7125908 72.8398347,49.3583549 70.2684648,45.2494001 C67.6943418,41.1390697 68.0040625,40.2119069 68.0040625,40.2119069 C69.2484514,39.7290669 68.5147575,38.8913188 68.5147575,38.8913188 C68.5147575,38.8913188 66.6261496,36.3381818 66.4265518,35.9887763 C66.2283306,35.6434975 66.2999105,35.3642481 66.5614524,35.2762089 C66.8216177,35.1895453 67.3873742,34.9061692 67.3873742,34.9061692 L66.4664714,33.1412582 C66.0700289,32.6254035 65.7355306,32.4121836 65.1876691,32.4121836 C64.9302568,32.4121836 64.6246657,32.46033 64.2419886,32.545618 C63.1063461,32.8069844 58.2568085,34.3490461 57.8149403,34.4921098 C57.8149403,34.4921098 57.8053046,34.494861 57.7970453,34.4976122 C57.786033,34.5017391 57.7791504,34.5044903 57.7791504,34.5044903 C57.3414118,34.6544321 52.5359233,36.3381818 51.4704842,36.8113926 C50.3582428,37.3121156 50.0622875,37.665648 50.0526517,38.6230743 L50.3775143,40.5874491 L50.3775143,40.5874491 Z M98.0552279,6.90970198 C99.8240771,6.90970198 101.753981,7.96892366 102.592292,9.48072188 C102.592292,9.48072188 106.977937,17.4523968 112.514366,28.6980296 L113.333405,28.4242827 C113.634866,28.323863 113.940458,28.2757165 114.240542,28.2757165 C115.435376,28.2757165 116.546241,29.0323034 116.945436,30.2249596 C117.446496,31.7230016 116.642598,33.3365952 115.144927,33.8373182 L115.027921,33.8758353 C120.306938,44.905497 126.143452,58.0728606 130.077593,69.8343481 C130.683269,71.6460299 131.273803,73.5141118 131.846443,75.4179596 C120.200945,80.1748279 108.145239,84.7432372 95.7550356,89.0846705 L95.7536591,89.0819193 C92.1264857,90.3557365 88.4772878,91.6102952 84.7895469,92.8414685 C76.5372114,95.5968205 68.3330547,98.1802209 60.2046074,100.60405 L72.8797543,138.506304 C73.1619442,139.707213 75.0698236,143.979866 77.4071824,144.499848 C77.7802237,144.581009 78.2647645,144.622277 78.8442864,144.622277 C81.8919379,144.622277 87.5784096,143.50528 93.5649663,141.509266 L93.6007562,141.496885 C100.724332,139.114324 106.753561,135.993059 108.306294,134.180002 C109.86591,132.358691 108.819742,127.79716 108.324189,126.667782 L99.9231877,101.549096 C111.977517,97.3314679 123.799211,92.8758588 135.340092,88.1891467 C136.994689,94.8168481 138.449688,101.483067 139.687194,107.612796 L139.804199,107.574279 C140.105661,107.473859 140.409875,107.425713 140.70996,107.425713 C141.904794,107.425713 143.015659,108.180924 143.414854,109.374956 C143.915913,110.871623 143.112016,112.486592 141.614345,112.985939 L140.795305,113.261062 C143.135417,125.568667 144.426608,134.574803 144.426608,134.574803 C144.700539,136.519919 143.498823,138.836451 141.753375,139.734726 L111.168113,152.862196 C109.37311,153.661427 107.909852,154.314843 107.911228,154.323097 C107.911228,154.323097 106.387402,154.832074 104.524949,155.453851 C104.524949,155.453851 103.554491,155.777119 98.8770201,157.335689 C94.2009261,158.901136 93.2304679,159.22578 93.2304679,159.22578 C91.3693907,159.847557 89.8428119,160.352407 89.8428119,160.352407 L89.8428119,160.352407 C89.82767,160.352407 88.2694309,160.708691 86.3656811,161.146135 L54.0267122,169.033898 C53.7982072,169.072415 53.564196,169.091674 53.3288083,169.091674 C51.5558295,169.091674 49.6259255,168.033828 48.7889914,166.515151 C48.7889914,166.515151 44.3992169,158.546228 38.8669172,147.30197 L38.042372,147.577093 C37.742287,147.677513 37.436696,147.725659 37.136611,147.725659 C35.943154,147.725659 34.8309126,146.969072 34.4303405,145.773665 C33.9306578,144.27975 34.7359316,142.66478 36.2322266,142.164057 L36.3519853,142.124165 C31.0688387,131.095879 25.2350776,117.928515 21.3009367,106.162901 C17.3681723,94.4014131 14.1057811,80.3742917 11.6927128,68.3872037 L11.5729542,68.4284721 C11.2714927,68.5288918 10.9672782,68.5756626 10.6671933,68.5756626 C9.47235969,68.5756626 8.36149484,67.8204513 7.96092276,66.6236684 C7.46124006,65.1297531 8.26651383,63.5147839 9.76280886,63.0154366 L10.5873541,62.740314 C8.24173618,50.4285815 6.95467468,41.4210703 6.95467468,41.4210703 C6.67799087,39.480081 7.87695404,37.1607982 9.62515523,36.26665 L40.2104167,23.1350523 C42.0026671,22.3358214 43.4686783,21.6865323 43.4673018,21.6824054 C43.4673018,21.6824054 44.9911275,21.169302 46.8535812,20.5475251 C46.8535812,20.5475251 47.8226628,20.2242561 52.5015099,18.6643115 C57.177604,17.10024 58.1466856,16.7755954 58.1466856,16.7755954 C60.0091393,16.1538185 61.5343416,15.6489687 61.5343416,15.6489687 L61.5357181,15.6489687 C61.55086,15.6489687 63.1077226,15.2885582 65.0142255,14.8511134 L97.3518178,6.96885332 C97.5816994,6.92758494 97.8157105,6.90970198 98.0552279,6.90970198 L98.0552279,6.90970198 Z" id="Fill-4" fill="#FFFFFF" mask="url(#mask-2)"></path>
                    </g>
                </g>
            </g>
        </g>
    </g>
</svg>